<svg width="512" height="512" viewBox="0 0 512 512" fill="none" xmlns="http://www.w3.org/2000/svg">
  <rect width="512" height="512" rx="128" fill="#071B2A"/>
  <rect x="36" y="36" width="440" height="440" rx="112" fill="url(#paint0_linear_1_2)"/>
  <rect x="154" y="136" width="70" height="314" rx="35" fill="white"/>
  <path d="M214 156H286C349.513 156 401 207.487 401 271C401 334.513 349.513 386 286 386H214V330H286C318.585 330 345 303.585 345 271C345 238.415 318.585 212 286 212H214V156Z" fill="white"/>
  <rect x="214" y="212" width="62" height="118" rx="31" fill="url(#paint1_linear_1_2)"/>
  <circle cx="189" cy="168" r="28" fill="#00C8FF"/>
  <circle cx="304" cy="271" r="86" fill="#7BF3FF" fill-opacity="0.14"/>
  <defs>
    <linearGradient id="paint0_linear_1_2" x1="72" y1="64" x2="434" y2="450" gradientUnits="userSpaceOnUse">
      <stop stop-color="#113B5A"/>
      <stop offset="0.55" stop-color="#00AEEF"/>
      <stop offset="1" stop-color="#73F0FF"/>
    </linearGradient>
    <linearGradient id="paint1_linear_1_2" x1="214" y1="212" x2="276" y2="330" gradientUnits="userSpaceOnUse">
      <stop stop-color="#113B5A"/>
      <stop offset="1" stop-color="#071B2A"/>
    </linearGradient>
  </defs>
</svg>
