<svg width="64" height="64" viewBox="0 0 64 64" fill="none" xmlns="http://www.w3.org/2000/svg">
  <rect width="64" height="64" rx="16" fill="#071B2A"/>
  <rect x="4.5" y="4.5" width="55" height="55" rx="14" fill="url(#paint0_linear_1_9)"/>
  <rect x="18" y="16" width="9" height="40" rx="4.5" fill="white"/>
  <path d="M26 18H35C42.1797 18 48 23.8203 48 31C48 38.1797 42.1797 44 35 44H26V38H35C38.866 38 42 34.866 42 31C42 27.134 38.866 24 35 24H26V18Z" fill="white"/>
  <rect x="26" y="24" width="7" height="14" rx="3.5" fill="url(#paint1_linear_1_9)"/>
  <circle cx="23" cy="20" r="4" fill="#00C8FF"/>
  <circle cx="38" cy="31" r="10" fill="#7BF3FF" fill-opacity="0.14"/>
  <defs>
    <linearGradient id="paint0_linear_1_9" x1="9" y1="7" x2="55" y2="58" gradientUnits="userSpaceOnUse">
      <stop stop-color="#113B5A"/>
      <stop offset="0.55" stop-color="#00AEEF"/>
      <stop offset="1" stop-color="#73F0FF"/>
    </linearGradient>
    <linearGradient id="paint1_linear_1_9" x1="26" y1="24" x2="33" y2="38" gradientUnits="userSpaceOnUse">
      <stop stop-color="#113B5A"/>
      <stop offset="1" stop-color="#071B2A"/>
    </linearGradient>
  </defs>
</svg>
